<?xml version="1.0" encoding="UTF-8"?>
<svg id="_图层_1" data-name="图层 1" xmlns="http://www.w3.org/2000/svg" xmlns:xlink="http://www.w3.org/1999/xlink" viewBox="0 0 1024 1024">
  <defs>
    <style>
      .cls-1 {
        fill: #f1f1f1;
      }

      .cls-2 {
        filter: url(#drop-shadow-1);
      }

      .cls-3 {
        filter: url(#drop-shadow-2);
      }

      .cls-4 {
        fill: #212121;
      }

      .cls-5 {
        fill: #00005b;
      }
    </style>
    <filter id="drop-shadow-1" x="348" y="846" width="359" height="151" filterUnits="userSpaceOnUse">
      <feOffset dx="12" dy="12"/>
      <feGaussianBlur result="blur" stdDeviation="10"/>
      <feFlood flood-color="#000" flood-opacity=".5"/>
      <feComposite in2="blur" operator="in"/>
      <feComposite in="SourceGraphic"/>
    </filter>
    <filter id="drop-shadow-2" x="163" y="243" width="720" height="379" filterUnits="userSpaceOnUse">
      <feOffset dx="12" dy="12"/>
      <feGaussianBlur result="blur-2" stdDeviation="10"/>
      <feFlood flood-color="#000" flood-opacity=".5"/>
      <feComposite in2="blur-2" operator="in"/>
      <feComposite in="SourceGraphic"/>
    </filter>
  </defs>
  <g id="_圆角" data-name="圆角">
    <path class="cls-1" d="M824,0H200C89.54,0,0,89.54,0,200v624c0,103.68,78.89,188.93,179.92,199h664.16c101.03-10.07,179.92-95.32,179.92-199V200c0-110.46-89.54-200-200-200Z"/>
    <path class="cls-5" d="M0,824c0,103.68,78.89,188.93,179.92,199h664.16c101.03-10.07,179.92-95.32,179.92-199v-13H0v13Z"/>
  </g>
  <g class="cls-2">
    <path class="cls-1" d="M434.19,867.4c1.8-1.59,3.75-2.43,5.85-2.52,2.1-.09,4,.31,5.7,1.19,1.7.88,2.98,2.19,3.83,3.91.85,1.72.83,3.65-.07,5.77-.7,1.5-1.58,2.92-2.63,4.24s-2.08,2.61-3.08,3.85c-3.3,4.42-6.73,8.66-10.28,12.73-3.55,4.07-7.18,8.09-10.88,12.07.9.88,2.12,2.17,3.68,3.85,1.55,1.68,3.25,3.56,5.1,5.63,1.85,2.08,3.73,4.29,5.63,6.63,1.9,2.34,3.7,4.6,5.4,6.76,1.7,2.17,3.18,4.2,4.43,6.1,1.25,1.9,2.12,3.47,2.63,4.71.8,2.04.83,3.91.07,5.64-.75,1.72-1.9,3.09-3.45,4.11-1.55,1.01-3.35,1.52-5.4,1.52s-4.03-.75-5.93-2.25c-1.6-1.24-3-2.96-4.2-5.17-1.2-2.21-2.4-4.11-3.6-5.7-2.5-3.36-5.1-6.61-7.81-9.75-2.7-3.14-5.51-6.25-8.41-9.35-2.8,3.1-5.68,6.12-8.63,9.08-2.95,2.96-5.88,5.9-8.78,8.82-.8.8-1.78,1.86-2.93,3.18-1.15,1.33-2.38,2.67-3.68,4.04-1.3,1.37-2.6,2.63-3.9,3.78-1.3,1.15-2.5,1.9-3.6,2.25-1.9.71-3.75.86-5.55.46-1.8-.4-3.3-1.13-4.5-2.19-1.2-1.06-2.03-2.39-2.48-3.98-.45-1.59-.28-3.23.53-4.91.8-1.77,1.98-3.29,3.53-4.58,1.55-1.28,3.03-2.63,4.43-4.04,4-4.15,8.01-8.29,12.01-12.4,4-4.11,8.01-8.29,12.01-12.53-3.5-3.98-7.08-7.89-10.73-11.74-3.65-3.84-7.53-7.54-11.63-11.07-.4-.35-1.03-.82-1.88-1.39-.85-.57-1.73-1.24-2.63-1.99-.9-.75-1.75-1.5-2.55-2.25-.8-.75-1.45-1.48-1.95-2.19-1-1.68-1.35-3.4-1.05-5.17.3-1.77,1.07-3.29,2.33-4.57,1.25-1.28,2.83-2.1,4.73-2.45,1.9-.35,3.9,0,6,1.06,1.7.97,3.25,2.06,4.65,3.25,1.4,1.19,2.8,2.41,4.2,3.65,4,3.45,7.81,7.01,11.41,10.67,3.6,3.67,7.15,7.45,10.66,11.34,1.4-1.5,2.8-2.98,4.2-4.44,1.4-1.46,2.75-2.94,4.05-4.44,2.7-3.18,5.3-6.34,7.81-9.48,2.5-3.14,4.95-6.39,7.36-9.75Z"/>
    <path class="cls-1" d="M577.77,946.16c-.3,1.95-1.1,3.6-2.4,4.97-1.3,1.37-2.8,2.32-4.5,2.85-1.7.53-3.45.55-5.25.07-1.8-.49-3.3-1.66-4.5-3.51-1-1.5-1.58-3.07-1.73-4.71-.15-1.63-.33-3.33-.53-5.1-.2-1.94-.43-3.65-.67-5.11-.25-1.46-.53-3.16-.83-5.1-.9-5.3-1.9-10.54-3-15.71-1.1-5.17-2.35-10.36-3.75-15.58-2,4.42-3.9,8.8-5.7,13.13-1.8,4.33-3.6,8.71-5.4,13.13-1.4,3.27-2.78,6.56-4.13,9.88-1.35,3.31-2.93,6.52-4.73,9.61-.6,1.06-1.6,1.92-3,2.58-1.4.66-2.9,1.04-4.5,1.13-1.6.09-3.1-.11-4.5-.6-1.4-.49-2.45-1.3-3.15-2.45-4.3-7.34-8.56-14.63-12.76-21.88-4.2-7.25-8.41-14.54-12.61-21.88-.5,4.51-.95,9.04-1.35,13.59-.4,4.55-.85,9.08-1.35,13.59-.1,1.42-.2,3.14-.3,5.17-.1,2.03-.28,4.09-.53,6.17-.25,2.08-.55,4.07-.9,5.97-.35,1.9-.93,3.38-1.73,4.44-1.2,1.77-2.78,2.92-4.73,3.45s-3.85.57-5.7.13c-1.85-.44-3.4-1.35-4.65-2.72-1.25-1.37-1.83-3.12-1.73-5.24.2-3.62.55-7.2,1.05-10.74.5-3.53.95-7.11,1.35-10.74.8-7.87,1.63-15.69,2.48-23.47.85-7.78,1.67-15.65,2.48-23.6.2-2.3.72-4.42,1.58-6.37.85-1.94,2.68-3.31,5.48-4.11,1.1-.35,2.25-.48,3.45-.4,1.2.09,2.3.4,3.3.93,2.2,1.24,3.93,2.94,5.18,5.11,1.25,2.17,2.43,4.22,3.53,6.17,1.9,3.18,3.75,6.39,5.55,9.61,1.8,3.23,3.6,6.43,5.4,9.61,2.2,4.07,4.43,8.07,6.68,12,2.25,3.93,4.58,7.89,6.98,11.87.6-1.33,1.18-2.65,1.73-3.98.55-1.33,1.13-2.65,1.73-3.98,1.1-2.3,2.12-4.62,3.08-6.96.95-2.34,1.93-4.66,2.93-6.96,1.4-3,2.72-5.97,3.98-8.88,1.25-2.92,2.48-5.88,3.68-8.88,1-2.21,1.95-4.6,2.85-7.16.9-2.56,2.35-4.73,4.35-6.5,1.4-1.33,2.93-2.12,4.58-2.39,1.65-.26,3.2-.15,4.65.33,1.45.49,2.75,1.3,3.9,2.45,1.15,1.15,1.97,2.48,2.48,3.98.6,2.03,1.3,4.33,2.1,6.9.8,2.56,1.5,4.86,2.1,6.89,1.1,3.71,2.1,7.36,3,10.94.9,3.58,1.75,7.23,2.55,10.94,1.4,6.1,2.63,12.13,3.68,18.1,1.05,5.97,1.97,12,2.78,18.1v.93Z"/>
    <path class="cls-1" d="M657.11,936.75c2.3.97,4.05,2.21,5.25,3.71,1.2,1.5,1.78,3.03,1.73,4.58-.05,1.55-.7,3.01-1.95,4.38-1.25,1.37-3.18,2.41-5.78,3.12-1,.27-2.4.42-4.2.46-1.8.04-4.3.07-7.5.07h-12.16c-4.9,0-10.96.04-18.16.13-1.8.09-3.66.13-5.55.13s-3.55-.58-4.95-1.72c-1.2-.88-2.08-2.23-2.63-4.04-.55-1.81-.9-3.71-1.05-5.7s-.2-3.98-.15-5.97c.05-1.99.08-3.65.08-4.97,0-2.65.02-5.7.08-9.15.05-3.45.1-6.96.15-10.54.05-3.58.08-7.09.08-10.54v-9.15c0-4.68.05-8.46.15-11.34.1-2.87.32-5.13.68-6.76.35-1.63.92-2.83,1.73-3.58.8-.75,1.9-1.39,3.3-1.92,1.2-.44,2.53-.6,3.98-.46,1.45.13,2.8.49,4.05,1.06,1.25.58,2.3,1.37,3.15,2.39.85,1.02,1.28,2.14,1.28,3.38.2,10.61.2,21.13,0,31.56-.2,10.43-.3,20.86-.3,31.29,6.3,0,12.58-.07,18.84-.2,6.25-.13,12.58-.29,18.99-.46l.9.26Z"/>
  </g>
  <g class="cls-3">
    <path class="cls-4" d="M209.01,384.44c-3.47-.59-6.44-2-8.91-4.24-2.47-2.24-3.7-5.01-3.7-8.31v-74.43c-2.4.35-4.74.09-7.01-.8-2.27-.88-4.07-2.06-5.4-3.54-1.34-1.47-2.1-3.18-2.3-5.13s.5-3.8,2.1-5.57c1.73-2,3.8-3.68,6.21-5.04,2.4-1.35,4.94-2.48,7.61-3.36,2.67-.88,5.44-1.62,8.31-2.21,2.87-.59,5.64-1.12,8.31-1.59,7.47-1.06,14.94-1.33,22.42-.8,7.47.53,14.54,1.98,21.22,4.33,6.67,2.36,12.78,5.66,18.31,9.9,5.54,4.24,10.04,9.55,13.51,15.91,2.13,3.89,3.67,7.93,4.6,12.11.93,4.19,1.47,8.4,1.6,12.64.13,5.54-.6,10.9-2.2,16.09-1.6,5.19-4,10.05-7.21,14.59-3.2,4.54-7.07,8.57-11.61,12.11-4.54,3.54-9.61,6.48-15.21,8.84-4.94,2-10.18,3.47-15.71,4.42-5.54.94-10.98,1.77-16.31,2.47-2.67.35-5.5.74-8.51,1.15-3,.41-5.9.62-8.71.62l-1.4-.18ZM230.63,290.56c-1.74,0-3.37.06-4.9.18-1.54.12-3.17.3-4.9.53v70.9c.8,0,1.47-.06,2-.18.53-.12,1.07-.18,1.6-.18s1-.06,1.4-.18c1.87-.23,3.4-.41,4.6-.53,1.2-.12,2.33-.26,3.4-.44,1.07-.18,2.17-.38,3.3-.62,1.13-.23,2.43-.53,3.9-.88,7.74-1.77,13.84-4.57,18.31-8.4,4.47-3.83,7.84-9.11,10.11-15.82,1.47-3.89,2.13-7.84,2-11.85-.13-4.01-.97-7.84-2.5-11.49-1.54-3.65-3.77-6.98-6.71-9.99-2.94-3.01-6.54-5.39-10.81-7.16-3.47-1.41-6.91-2.36-10.31-2.83-3.4-.47-6.91-.82-10.51-1.06Z"/>
    <path class="cls-4" d="M325.2,335.46c.93-3.42,2.23-6.78,3.9-10.08,1.67-3.3,3.7-6.45,6.1-9.46s5.1-5.75,8.11-8.22,6.24-4.48,9.71-6.01c6.14-2.83,12.31-4.27,18.51-4.33,6.2-.06,11.97,1.03,17.31,3.27,5.34,2.24,9.87,5.57,13.61,9.99,3.73,4.42,6.2,9.7,7.41,15.82.67,4.01,1.03,7.81,1.1,11.4.07,3.6-.37,7.34-1.3,11.23-1.34,5.54-4.04,11.05-8.11,16.53-4.07,5.48-8.94,10.08-14.61,13.79-5.67,3.71-11.88,6.16-18.61,7.34-6.74,1.18-13.51.23-20.32-2.83-3.07-1.3-5.84-2.8-8.31-4.51-2.47-1.71-4.7-3.74-6.71-6.1-2.27-2.59-4.04-5.3-5.3-8.13-1.27-2.83-2.3-5.77-3.1-8.84-.94-3.3-1.27-6.63-1-9.99.27-3.36.73-6.63,1.4-9.81l.2-1.06ZM349.22,339.18c-.4,1.89-.73,3.74-1,5.57-.27,1.83-.27,3.69,0,5.57.4,2.71,1.23,5.19,2.5,7.43,1.27,2.24,2.93,4.01,5,5.3,2.07,1.3,4.43,1.97,7.11,2.03,2.67.06,5.54-.68,8.61-2.21,3.87-2,7.21-5.1,10.01-9.28,2.8-4.18,4.53-8.54,5.2-13.08.67-4.54.13-8.84-1.6-12.91-1.74-4.07-5.14-6.98-10.21-8.75-3.34,0-6.4.56-9.21,1.68-2.8,1.12-5.24,2.59-7.31,4.42-2.07,1.83-3.87,3.98-5.4,6.45-1.54,2.48-2.77,5.07-3.7,7.78Z"/>
    <path class="cls-4" d="M530.86,363.93c1.2,1.53,1.9,3.33,2.1,5.39.2,2.06-.07,4.01-.8,5.83-.74,1.83-1.94,3.33-3.6,4.51-1.67,1.18-3.84,1.71-6.5,1.59-3.47-.24-6.28-1.3-8.41-3.18-2.14-1.88-4.14-4.01-6-6.36-5.2,3.77-10.58,6.39-16.11,7.87-5.54,1.47-10.98,1.8-16.31.97-5.34-.83-10.34-2.8-15.01-5.92-4.67-3.12-8.61-7.34-11.81-12.64-2.94-4.95-4.57-10.43-4.9-16.44-.33-6.01-.44-11.73-.3-17.15,0-1.88.07-3.74.2-5.57.13-1.83.27-3.74.4-5.75.13-1.53.2-3.03.2-4.51s.1-2.86.3-4.15c.2-1.3.6-2.59,1.2-3.89.6-1.3,1.5-2.53,2.7-3.71,1.6-1.53,3.53-2.44,5.8-2.74,2.27-.29,4.43-.09,6.5.62,2.07.71,3.87,1.8,5.4,3.27,1.53,1.48,2.37,3.27,2.5,5.39.27,6.01.1,12.08-.5,18.21-.6,6.13-.57,12.14.1,18.03.27,2.83,1.1,5.72,2.5,8.66,1.4,2.95,3.63,5.07,6.71,6.37,3.07,1.18,6.17,1.09,9.31-.27,3.13-1.35,5.7-2.97,7.71-4.86.93-.94,1.83-1.97,2.7-3.09.87-1.12,1.83-2.09,2.9-2.92-.54-4.12-.87-8.25-1-12.38-.13-4.12-.13-8.25,0-12.38,0-2.24.1-4.69.3-7.34s.73-5.19,1.6-7.6c.87-2.41,2.17-4.54,3.9-6.36,1.73-1.83,4.2-2.98,7.41-3.45,1.47-.23,2.9-.12,4.3.35,1.4.47,2.63,1.12,3.7,1.94,1.87,1.41,3.13,3.01,3.8,4.77.67,1.77,1,3.65,1,5.66s-.17,4.04-.5,6.1c-.33,2.06-.57,3.98-.7,5.75-.27,3.3-.47,6.78-.6,10.43-.13,3.65,0,7.31.4,10.96.4,3.65,1.17,7.19,2.3,10.61,1.13,3.42,2.83,6.54,5.11,9.37Z"/>
    <path class="cls-4" d="M603.61,382.31c-3.87.12-7.57-.12-11.11-.71-3.54-.59-7.04-1.59-10.51-3.01-1.74.82-3.44,1.24-5.1,1.24s-3.2-.24-4.6-.71c-1.4-.47-2.6-1.03-3.6-1.68-1-.65-1.7-1.15-2.1-1.5-1.47-1.88-2.34-4.01-2.6-6.37-.27-2.36.6-4.6,2.6-6.72v-90.87c0-2.71,1.07-4.98,3.2-6.81,2.13-1.83,4.6-2.98,7.41-3.45,2.8-.47,5.5-.06,8.11,1.24,2.6,1.3,4.37,3.65,5.3,7.07.53,2.12.97,4.22,1.3,6.28.33,2.06.53,4.45.6,7.16.07,2.71.07,5.83,0,9.37-.07,3.54-.23,7.9-.5,13.08,1.2-.59,2.43-1.15,3.7-1.68,1.27-.53,2.57-1.09,3.9-1.68,3.73-1.53,7.74-2.48,12.01-2.83,4.27-.35,8.44-.15,12.51.62,4.07.77,7.87,2.18,11.41,4.24,3.53,2.06,6.44,4.75,8.71,8.04,3.2,4.72,5.37,10.23,6.5,16.53,1.13,6.31,1.13,12.55,0,18.74-1.14,6.19-3.47,11.93-7.01,17.24-3.54,5.3-8.51,9.25-14.91,11.85-4,1.65-8.11,2.92-12.31,3.8s-8.51,1.38-12.91,1.5ZM591,337.05v21.22c.27.24.53.41.8.53.27.12.53.3.8.53,12.01,3.54,22.42,1.12,31.22-7.25,2-4.71,2.97-9.16,2.9-13.35-.07-4.18-.97-8.69-2.7-13.52-.67-1.41-1.77-2.33-3.3-2.74-1.54-.41-2.9-.91-4.1-1.5-2.14-.35-4.44,0-6.91,1.06-2.47,1.06-4.84,2.39-7.1,3.98-2.27,1.59-4.34,3.33-6.21,5.22-1.87,1.89-3.34,3.48-4.4,4.77l-1,1.06Z"/>
    <path class="cls-4" d="M715.39,366.76c1.47,1.18,2.7,2.68,3.7,4.51,1,1.83,1.53,3.65,1.6,5.48.07,1.83-.4,3.54-1.4,5.13-1,1.59-2.77,2.8-5.3,3.62-2,.59-4.2.71-6.61.35-2.4-.35-4.77-1.06-7.11-2.12-2.34-1.06-4.4-2.33-6.2-3.8-1.8-1.48-3.1-3.09-3.9-4.86-.27-.59-.47-1.26-.6-2.03-.13-.76-.2-1.44-.2-2.03v-98.12c0-2.71,1.17-5.01,3.5-6.9,2.33-1.88,4.9-3.01,7.71-3.36,1.33-.12,2.77.06,4.3.53,1.53.47,2.97,1.15,4.3,2.03,1.33.88,2.43,1.92,3.3,3.09.87,1.18,1.3,2.42,1.3,3.71v12.2c0,5.07.03,10.61.1,16.62.07,6.01.1,12.23.1,18.65s-.03,12.58-.1,18.48c-.07,5.9-.1,11.29-.1,16.18s-.07,8.81-.2,11.76l1.8.88Z"/>
    <path class="cls-4" d="M824.58,354.03c3.2-.71,6.04-.74,8.51-.09,2.47.65,4.37,1.74,5.71,3.27,1.33,1.53,1.93,3.42,1.8,5.66-.13,2.24-1.27,4.6-3.4,7.07-1.74,2.01-4.14,3.71-7.21,5.13-3.07,1.42-5.94,2.54-8.61,3.36-6.54,2.12-12.74,3.59-18.61,4.42-5.87.82-11.38.82-16.51,0-5.14-.83-9.94-2.54-14.41-5.13-4.47-2.59-8.64-6.25-12.51-10.96-2.67-3.18-4.64-6.81-5.91-10.87-1.27-4.07-1.97-8.22-2.1-12.46-.13-4.24.27-8.43,1.2-12.55.93-4.12,2.27-7.84,4-11.14,2.27-4.12,5.87-7.9,10.81-11.31,4.93-3.42,10.41-6.13,16.41-8.13,6-2,12.14-3.15,18.41-3.45,6.27-.29,11.81.56,16.61,2.56,4,1.65,7.44,4.04,10.31,7.16,2.87,3.12,4.83,6.51,5.9,10.17,1.07,3.65,1.17,7.34.3,11.05-.87,3.71-3.04,7.1-6.5,10.17-3.34,2.95-7.01,5.33-11.01,7.16-4,1.83-8.14,3.42-12.41,4.77-4.27,1.36-8.64,2.51-13.11,3.45-4.47.94-8.78,2-12.91,3.18,2.8,2.83,6,4.63,9.61,5.39,3.6.77,7.37.91,11.31.44,3.93-.47,7.91-1.44,11.91-2.92,4-1.47,7.74-3.09,11.21-4.86l1.2-.53ZM784.15,323.62c-3.07,1.53-5.34,3.45-6.8,5.75-1.47,2.3-2.54,5.51-3.2,9.64,3.47-.94,7.37-1.94,11.71-3.01,4.33-1.06,8.44-2.18,12.31-3.36,3.87-1.18,7.14-2.48,9.81-3.89,2.67-1.41,4-2.94,4-4.6,0-.94-.17-1.86-.5-2.74-.33-.88-1.04-1.5-2.1-1.86-3.74-1.18-7.61-1.41-11.61-.71-4,.71-7.34,1.71-10.01,3.01l-3.6,1.77Z"/>
    <path class="cls-4" d="M379.34,552.57c3.07,1.3,5.4,2.95,7.01,4.95,1.6,2.01,2.37,4.04,2.3,6.1-.07,2.06-.94,4.01-2.6,5.83-1.67,1.83-4.24,3.21-7.71,4.16-1.34.35-3.2.56-5.6.62-2.4.06-5.74.09-10.01.09h-16.21c-6.54,0-14.61.06-24.22.18-2.4.12-4.87.18-7.41.18s-4.74-.77-6.6-2.3c-1.6-1.18-2.77-2.98-3.5-5.39-.74-2.41-1.2-4.95-1.4-7.6-.2-2.65-.27-5.3-.2-7.96.07-2.65.1-4.86.1-6.63,0-3.54.03-7.6.1-12.2.07-4.6.13-9.28.2-14.06.07-4.77.1-9.46.1-14.05v-12.2c0-6.25.07-11.28.2-15.12.13-3.83.43-6.83.9-9.02.47-2.18,1.23-3.77,2.3-4.77,1.07-1,2.53-1.86,4.4-2.56,1.6-.59,3.37-.79,5.3-.62,1.93.18,3.73.65,5.4,1.41,1.67.77,3.07,1.83,4.2,3.18,1.13,1.36,1.7,2.86,1.7,4.51.27,14.14.27,28.17,0,42.08-.27,13.91-.4,27.82-.4,41.72,8.41,0,16.78-.09,25.12-.26,8.34-.18,16.78-.38,25.32-.62l1.2.35Z"/>
    <path class="cls-4" d="M415.87,527.46c.93-3.42,2.23-6.78,3.9-10.08,1.67-3.3,3.7-6.45,6.1-9.46s5.1-5.75,8.11-8.22c3-2.48,6.24-4.48,9.71-6.01,6.14-2.83,12.31-4.27,18.51-4.33,6.2-.06,11.97,1.03,17.31,3.27,5.34,2.24,9.87,5.57,13.61,9.99,3.73,4.42,6.2,9.7,7.41,15.82.67,4.01,1.03,7.81,1.1,11.4.07,3.6-.37,7.34-1.3,11.23-1.34,5.54-4.04,11.05-8.11,16.53-4.07,5.48-8.94,10.08-14.61,13.79-5.67,3.71-11.88,6.16-18.61,7.34-6.74,1.18-13.51.23-20.32-2.83-3.07-1.3-5.84-2.8-8.31-4.51-2.47-1.71-4.7-3.74-6.71-6.1-2.27-2.59-4.04-5.3-5.3-8.13-1.27-2.83-2.3-5.77-3.1-8.84-.94-3.3-1.27-6.63-1-9.99.27-3.36.73-6.63,1.4-9.81l.2-1.06ZM439.89,531.18c-.4,1.89-.73,3.74-1,5.57-.27,1.83-.27,3.69,0,5.57.4,2.71,1.23,5.19,2.5,7.43,1.27,2.24,2.93,4.01,5,5.3,2.07,1.3,4.43,1.97,7.11,2.03,2.67.06,5.54-.68,8.61-2.21,3.87-2,7.21-5.1,10.01-9.28,2.8-4.18,4.53-8.54,5.2-13.08.67-4.54.13-8.84-1.6-12.91-1.74-4.07-5.14-6.98-10.21-8.75-3.34,0-6.4.56-9.21,1.68-2.8,1.12-5.24,2.59-7.31,4.42-2.07,1.83-3.87,3.98-5.4,6.45-1.54,2.47-2.77,5.07-3.7,7.78Z"/>
    <path class="cls-4" d="M588.1,493.34c2-2.36,4.3-3.98,6.91-4.86,2.6-.88,5.04-1.06,7.31-.53,2.27.53,4.2,1.74,5.8,3.62,1.6,1.89,2.47,4.42,2.6,7.6,0,.83-.17,1.89-.5,3.18-.33,1.3-.77,2.62-1.3,3.98-.53,1.36-1,2.59-1.4,3.71-.4,1.12-.67,1.86-.8,2.21-2.27,6.37-4.9,13.23-7.91,20.6-3,7.37-5.77,14.23-8.31,20.6-1.07,2.71-2.17,5.28-3.3,7.69-1.14,2.42-2.3,4.92-3.5,7.51-.94,2.12-2.3,3.83-4.1,5.13-1.8,1.3-3.74,2.12-5.8,2.47-2.07.35-4.17.18-6.3-.53-2.14-.71-4-2-5.6-3.89-1.07-1.3-1.97-2.94-2.7-4.95-.73-2-1.3-3.47-1.7-4.42-1.47-3.42-2.94-6.78-4.4-10.08-1.47-3.3-2.94-6.6-4.4-9.9-2-4.48-4.07-8.9-6.2-13.26-2.14-4.36-4.34-8.66-6.61-12.91-1.33-2.59-2.8-5.13-4.4-7.6-1.6-2.48-2.8-5.07-3.6-7.78-.8-2.48-.7-4.69.3-6.63s2.47-3.45,4.4-4.51c1.93-1.06,4.13-1.65,6.61-1.77,2.47-.12,4.83.47,7.11,1.77,1.73.94,3.33,2.42,4.8,4.42,1.47,2.01,2.8,4.19,4,6.54,1.2,2.36,2.3,4.68,3.3,6.98,1,2.3,1.9,4.22,2.7,5.75,1.87,3.77,3.7,7.54,5.5,11.31,1.8,3.77,3.57,7.54,5.3,11.32,2.8-6.95,5.5-13.88,8.11-20.77,2.6-6.9,5.04-13.88,7.31-20.95l.8-1.06Z"/>
    <path class="cls-4" d="M712.5,546.03c3.2-.71,6.04-.74,8.51-.09,2.47.65,4.37,1.74,5.71,3.27,1.33,1.53,1.93,3.42,1.8,5.66-.13,2.24-1.27,4.6-3.4,7.07-1.74,2.01-4.14,3.71-7.21,5.13-3.07,1.42-5.94,2.54-8.61,3.36-6.54,2.12-12.74,3.59-18.61,4.42-5.87.82-11.38.82-16.51,0-5.14-.83-9.94-2.54-14.41-5.13-4.47-2.59-8.64-6.25-12.51-10.96-2.67-3.18-4.64-6.81-5.91-10.87-1.27-4.07-1.97-8.22-2.1-12.46-.13-4.24.27-8.42,1.2-12.55.93-4.12,2.27-7.84,4-11.14,2.27-4.12,5.87-7.89,10.81-11.31,4.93-3.42,10.41-6.13,16.41-8.13,6-2,12.14-3.15,18.41-3.45,6.27-.29,11.81.56,16.61,2.56,4,1.65,7.44,4.04,10.31,7.16,2.87,3.12,4.83,6.51,5.9,10.17,1.07,3.65,1.17,7.34.3,11.05-.87,3.71-3.04,7.1-6.5,10.17-3.34,2.95-7.01,5.33-11.01,7.16-4,1.83-8.14,3.42-12.41,4.77-4.27,1.36-8.64,2.51-13.11,3.45-4.47.94-8.78,2-12.91,3.18,2.8,2.83,6,4.63,9.61,5.39,3.6.77,7.37.91,11.31.44,3.93-.47,7.91-1.44,11.91-2.92,4-1.47,7.74-3.09,11.21-4.86l1.2-.53ZM672.06,515.62c-3.07,1.53-5.34,3.45-6.8,5.75-1.47,2.3-2.54,5.51-3.2,9.64,3.47-.94,7.37-1.95,11.71-3.01,4.33-1.06,8.44-2.18,12.31-3.36,3.87-1.18,7.14-2.47,9.81-3.89,2.67-1.41,4-2.94,4-4.6,0-.94-.17-1.86-.5-2.74-.33-.88-1.04-1.5-2.1-1.86-3.74-1.18-7.61-1.41-11.61-.71-4,.71-7.34,1.71-10.01,3.01l-3.6,1.77Z"/>
  </g>
</svg>