<?xml version="1.0" encoding="UTF-8"?>
<svg id="_图层_1" data-name="图层 1" xmlns="http://www.w3.org/2000/svg" xmlns:xlink="http://www.w3.org/1999/xlink" viewBox="0 0 1950 1951.63">
  <defs>
    <style>
      .cls-1 {
        filter: url(#drop-shadow-4);
      }

      .cls-1, .cls-2, .cls-3, .cls-4, .cls-5, .cls-6, .cls-7, .cls-8, .cls-9, .cls-10 {
        fill: #0d0d0d;
      }

      .cls-2 {
        filter: url(#drop-shadow-8);
      }

      .cls-3 {
        filter: url(#drop-shadow-6);
      }

      .cls-4 {
        filter: url(#drop-shadow-7);
      }

      .cls-5 {
        filter: url(#drop-shadow-5);
      }

      .cls-6 {
        filter: url(#drop-shadow-3);
      }

      .cls-7 {
        filter: url(#drop-shadow-2);
      }

      .cls-8 {
        filter: url(#drop-shadow-1);
      }

      .cls-9 {
        filter: url(#drop-shadow-9);
      }

      .cls-11 {
        fill: #fff;
      }

      .cls-12 {
        fill: #99f;
      }

      .cls-13 {
        fill: #00005b;
      }
    </style>
    <filter id="drop-shadow-1" x="309.51" y="732.82" width="323" height="361" filterUnits="userSpaceOnUse">
      <feOffset dx="20" dy="15"/>
      <feGaussianBlur result="blur" stdDeviation="10"/>
      <feFlood flood-color="#000" flood-opacity=".4"/>
      <feComposite in2="blur" operator="in"/>
      <feComposite in="SourceGraphic"/>
    </filter>
    <filter id="drop-shadow-2" x="1043.51" y="729.82" width="275" height="353" filterUnits="userSpaceOnUse">
      <feOffset dx="20" dy="15"/>
      <feGaussianBlur result="blur-2" stdDeviation="10"/>
      <feFlood flood-color="#000" flood-opacity=".4"/>
      <feComposite in2="blur-2" operator="in"/>
      <feComposite in="SourceGraphic"/>
    </filter>
    <filter id="drop-shadow-3" x="1173.51" y="1195.82" width="273" height="258" filterUnits="userSpaceOnUse">
      <feOffset dx="20" dy="15"/>
      <feGaussianBlur result="blur-3" stdDeviation="10"/>
      <feFlood flood-color="#000" flood-opacity=".4"/>
      <feComposite in2="blur-3" operator="in"/>
      <feComposite in="SourceGraphic"/>
    </filter>
    <filter id="drop-shadow-4" x="1399.51" y="825.82" width="271" height="258" filterUnits="userSpaceOnUse">
      <feOffset dx="20" dy="15"/>
      <feGaussianBlur result="blur-4" stdDeviation="10"/>
      <feFlood flood-color="#000" flood-opacity=".4"/>
      <feComposite in2="blur-4" operator="in"/>
      <feComposite in="SourceGraphic"/>
    </filter>
    <filter id="drop-shadow-5" x="816.51" y="822.82" width="256" height="267" filterUnits="userSpaceOnUse">
      <feOffset dx="20" dy="15"/>
      <feGaussianBlur result="blur-5" stdDeviation="10"/>
      <feFlood flood-color="#000" flood-opacity=".4"/>
      <feComposite in2="blur-5" operator="in"/>
      <feComposite in="SourceGraphic"/>
    </filter>
    <filter id="drop-shadow-6" x="746.51" y="1196.82" width="261" height="260" filterUnits="userSpaceOnUse">
      <feOffset dx="20" dy="15"/>
      <feGaussianBlur result="blur-6" stdDeviation="10"/>
      <feFlood flood-color="#000" flood-opacity=".4"/>
      <feComposite in2="blur-6" operator="in"/>
      <feComposite in="SourceGraphic"/>
    </filter>
    <filter id="drop-shadow-7" x="593.51" y="826.82" width="260" height="260" filterUnits="userSpaceOnUse">
      <feOffset dx="20" dy="15"/>
      <feGaussianBlur result="blur-7" stdDeviation="10"/>
      <feFlood flood-color="#000" flood-opacity=".4"/>
      <feComposite in2="blur-7" operator="in"/>
      <feComposite in="SourceGraphic"/>
    </filter>
    <filter id="drop-shadow-8" x="518.51" y="1106.82" width="281" height="357" filterUnits="userSpaceOnUse">
      <feOffset dx="20" dy="15"/>
      <feGaussianBlur result="blur-8" stdDeviation="10"/>
      <feFlood flood-color="#000" flood-opacity=".4"/>
      <feComposite in2="blur-8" operator="in"/>
      <feComposite in="SourceGraphic"/>
    </filter>
    <filter id="drop-shadow-9" x="964.51" y="1194.82" width="264" height="260" filterUnits="userSpaceOnUse">
      <feOffset dx="20" dy="15"/>
      <feGaussianBlur result="blur-9" stdDeviation="10"/>
      <feFlood flood-color="#000" flood-opacity=".4"/>
      <feComposite in2="blur-9" operator="in"/>
      <feComposite in="SourceGraphic"/>
    </filter>
  </defs>
  <path class="cls-11" d="M0,358.83v1234.87c0,197.68,160.25,357.93,357.93,357.93h1234.13c197.68,0,357.93-160.25,357.93-357.93V358.83c0-33.31-4.56-65.55-13.07-96.15H13.07c-8.51,30.6-13.07,62.84-13.07,96.15Z"/>
  <path class="cls-13" d="M1937.18,1688.95H12.82c41.71,151.44,180.42,262.68,345.11,262.68h1234.13c164.7,0,303.41-111.24,345.11-262.68Z"/>
  <path class="cls-12" d="M1115.91,1865.12c.9-19.96,1.77-39.89,2.48-59.89.55-15.46,3.54-38.03,1.15-53.05-1.94-12.2-21.46-14.43-26.95-3.62-3.43,6.74-.98,44.59-1.34,55.47-.73,21.96-4.98,44.75-4.99,66.64,0,10.35,8.18,16.82,17.91,17.92,17.53,1.97,69.04-3.87,84.66-11.73,10.9-5.49,8.8-19.83-.9-22.59-7.78-2.22-37.47,6.6-48.13,8.17-7.95,1.17-15.98,1.31-23.88,2.67Z"/>
  <path class="cls-12" d="M1073.51,1884.51c1.23-1.39,1.81-3.78,2.62-5.5-2.77-18.44-10.9-36.15-15.46-54.39-5.19-20.75-6.51-45.83-12.52-65.3-3.45-11.19-9.95-19.17-22.8-16.21-2.74.63-8.62,6.05-10.05,8.47-4.81,8.17-9.33,31.72-13.02,42.56-4.59,13.48-10.6,26.51-14.89,40.1-4.97-5.84-7.21-16.93-9.27-24.69-4.02-15.09-7.26-45.44-14.16-57.49-5.64-9.86-18.95-11.24-26.67-3.11-10.08,10.61-13.79,43.7-17.92,58.67-4.55,16.5-22.37,56.88-16.3,72.01,4.14,10.3,21.89,10.32,26.51-.05l18.29-68.81c3.98,3.53,3.78,11.05,5.29,16.32,3.71,12.95,10.23,37.02,15.93,48.3,5.78,11.43,19.89,13.68,28.22,3.95,9-10.51,21.6-50.81,27.83-66.07.66-1.61,1.37-5.58,3.64-4.98,2.18,10.51,4.07,21.22,6.65,31.66s6.67,30.13,10.78,38.63c4.99,10.29,19.59,14.62,27.3,5.92Z"/>
  <path class="cls-12" d="M818.47,1793.1c-10.48-10.6-19.58-23.02-29.99-33.61-8.09-8.23-27.55-25.19-37.13-9.89-7.28,11.62,9.87,20.56,17.36,28.41,11.23,11.78,21.35,24.72,33.31,35.85l-56.69,54.48c-5.87,11.99,4.64,21.09,16.26,18.74,3.88-.78,11.18-7.32,14.52-10.21,14.53-12.58,27.86-28.8,42.78-41.31,6.61-1.15,34.86,53.14,54.2,53.14,8.9,0,17.96-8.94,12.81-17.88-16.44-17.84-32.59-35.98-46.82-55.72,11.55-10.64,20.71-23.61,30.99-35.47,5.33-6.15,18.58-16.07,18.58-23.83,0-9.98-11.21-14.09-19.36-10.59-12.7,5.46-44.6,48.63-48.08,49.15l-2.74-1.28Z"/>
  <path class="cls-8" d="M550.47,846.84c69.74,79.57,14.98,181.93-81.65,197.95-51.3,8.5-81.36,1.07-128.99-13.95-12.33-3.89-18.86-11.76-19.77-24.71-2.36-33.81,5.32-74.35,5.06-108.69-2-16.87-1.03-33.79-1.24-50.75-.27-21.32-4.07-50.93-1.34-71.64,1.62-12.27,19.67-25.85,31.61-26.52,13.03-.73,57.6,20.18,72.82,26,49.57,18.97,86.9,30.53,123.51,72.31ZM379.43,811.54v178.48c20.13,11.5,48.51,10.75,71.03,8.01,73.63-8.94,100.23-86.06,40.76-134.58-31.48-25.68-74.43-37.33-111.79-51.91Z"/>
  <path class="cls-7" d="M1106.03,849.82c49.88-24.36,111-18.06,144.34,29.26,27.42,38.92,22.62,91.29-10.4,125.01-29.1,29.72-70.74,37.55-110.92,32.07-7.14-.97-24.37-7.19-28.62-7.13-2.59.04-7.9,4.62-12.88,5.51-15.21,2.71-31.95-4.13-33.48-21.01-.64-7.13,1.25-13.42,1.34-19.76,1.04-74.55-1.75-149.42.98-223.82,5.46-17.92,18.39-27.5,37.61-23.6,9.22,1.87,13.24,11.53,13.35,20.08.05,4.09-1.34,7.47-1.38,11.08-.25,24.09.29,48.22.06,72.3ZM1106.19,980.58c28.61,11.16,62.91,18.2,88.81-2.9,35.2-28.68,19.38-91.98-27.97-95.57-21.88-1.66-42.41,11-60.81,21.03l-.03,77.45Z"/>
  <path class="cls-6" d="M1282.48,1212.1c29.02-2.4,83.12,2.99,97.72,32.51,19.43,39.29-23.33,56.87-51.79,68.98-27.69,11.78-56.59,20.83-83.96,33.39,22.53,19.6,58.16,21.7,86.04,14.39,16.49-4.32,45.62-25.83,60.4-8.87,15.85,18.19-9.36,36.81-24.53,43.48-55.77,24.53-171.5,17.37-181.14-58.99-7.88-62.37,33.82-119.65,97.27-124.9ZM1328.44,1261.14c-38.33-13.37-75.8-3.06-87.73,38.27,18.8-6.65,38.09-12.95,56.45-20.76,7.22-3.07,23.63-9.75,29.23-14.01,1.4-1.06,2.53-1.29,2.05-3.5Z"/>
  <path class="cls-1" d="M1469.32,975.83l6.98,5.97c35.24,20.72,66.63,13.49,101.79-.38,12.9-5.09,39.46-11.8,41.86,8.71,3.79,32.36-50.78,44.55-74.8,47.3-54.82,6.27-131.33-12.08-135.14-78.29-2.99-51.91,27.96-103.25,80.26-114.9,32.38-7.21,105.75-3.33,117.83,35.47,9.72,31.24-17.7,46.98-41.58,58.04-31.07,14.39-65.6,24.63-97.21,38.09ZM1554.57,893.04c2.4-3.14-22.05-7.29-24.04-7.44-34.33-2.61-54.61,12.16-64.91,44.51l88.96-37.07Z"/>
  <path class="cls-5" d="M966.18,1031.57c-46.46,12.67-118.96,17.94-131.44-42.13-7.51-36.17-11.53-100-.23-134.95,8.04-24.89,52.68-19.1,55.26,3.36,1.74,15.15-3.98,28.76-4.99,43.18-1.97,28,.5,58.65,6.89,85.85,13.28,7.26,30.77,5.3,45.53,3.6,5.3-.61,17.69-2.12,22.16-3.79.97-.36,1.7-.66,1.93-1.78,1.5-31.74-1.46-64.56.17-96.17.5-9.63,1.77-23.59,4.28-32.78,7.6-27.82,56.38-21.62,56.37,6.84,0,15.75-3.33,34.38-3.87,50.58-1.23,37.63.82,75.53.74,113.14-6.86,21.73-41.91,24.7-52.79,5.05Z"/>
  <path class="cls-3" d="M785.51,1385.12c-57.76-54.76-22.86-151.63,52.59-168.85,145.23-33.13,157.08,175.08,34.65,193.98-32.07,4.95-63.63-2.75-87.24-25.13ZM888.1,1350.86c20.28-19.76,19.2-84.63-14.09-89.41-69.02-9.91-83.76,107.66-14.52,102.17,9.34-.74,21.9-6.22,28.62-12.77Z"/>
  <path class="cls-4" d="M774.37,1011.16c-52.15,55-159.89,31.05-169.89-48.47-9.07-72.11,47.96-125.87,119.07-120.26,83.28,6.57,102.19,114.56,50.82,168.73ZM702.88,890.91c-47.51,6.46-61.47,97.07-6.49,102.19,27.76,2.58,48.97-16.59,51.25-43.85,2.7-32.29-6.08-63.59-44.76-58.33Z"/>
  <path class="cls-2" d="M587.02,1368.6c45.3-.56,89.02-12.5,132.83-22.33,25.2-1.65,41.98,30.74,17.55,44.79-27.37,15.74-126.9,27.93-159.69,26.98-16.52-.48-37.57-5.42-44.77-21.94-6.45-14.79-2.4-21.2-1.52-35.56,4.43-72.83,8.25-145.41,7.5-218.54,4.94-27.64,53.69-25.9,56.79-.1,3.29,27.33-2.55,60.99.02,89.01l-1.24,37.05-7.47,100.62Z"/>
  <path class="cls-9" d="M1073.91,1324.12c1.91,1.77,4.43-4.17,5.12-5.35,3.82-6.51,7.39-14.49,10.75-21.38,10.17-20.83,22.43-58,34.78-75.17,9.91-13.78,30.51-15.29,43.86-5.56,17.42,12.7,5.81,28.43-.97,43.49-19.29,42.9-43.84,83.43-64.82,125.42-4.06,8.12-2.49,13.86-12.8,19.32-18.17,9.63-35.48.76-44.58-15.71-25.43-45.97-43.27-100.91-68.7-147.49-9.72-25.5,24.26-38.58,43.03-28.19,8.65,4.79,15.54,21.66,19.93,30.72,12.61,26.03,22.85,53.38,34.4,79.88Z"/>
  <path class="cls-10" d="M1335.56,740.22c14-2.02,32.18,3.95,33.72,19.99l-.05,253.28c-2.2,20.25-19.68,29.07-38.31,23.46-13.18-3.97-17.65-12.98-18.59-25.88-5.79-79.79,4.42-166.54.07-247.06,0-12.69,11.12-22.04,23.16-23.78Z"/>
  <path class="cls-11" d="M12.82,262.68h1924.36C1895.48,111.24,1756.76,0,1592.07,0H357.93C193.24,0,54.52,111.24,12.82,262.68Z"/>
</svg>